<svg width="125" height="143" viewBox="0 0 125 143" fill="none" xmlns="http://www.w3.org/2000/svg">
<path d="M60.7752 141.968C57.1158 141.206 54.6318 138.226 54.4473 134.375C54.3121 131.555 54.8406 130.163 56.7714 128.256C58.5733 126.475 60.0213 125.866 62.4479 125.866C64.8841 125.866 66.3254 126.475 68.1046 128.256C70.0425 130.196 70.5815 131.599 70.4492 134.362C70.339 136.663 69.6579 138.272 68.1587 139.773C66.359 141.574 63.2819 142.489 60.7752 141.968ZM41.4426 125.793C26.4484 117.161 21.5257 114.246 21.0001 113.686C20.2133 112.847 20.0107 110.923 20.5908 109.8C21.1416 108.734 22.3722 108.01 23.6376 108.009C24.5179 108.008 26.3479 108.987 36.9557 115.128C46.55 120.683 49.3776 122.433 49.8194 123.089C50.9057 124.703 50.3282 127.126 48.6501 127.994C47.0651 128.815 46.2714 128.572 41.4426 125.793ZM76.0931 127.891C74.4951 126.916 74.0161 124.659 75.0757 123.097C75.5128 122.453 78.4369 120.645 87.9548 115.137C101.476 107.311 101.366 107.358 103.18 108.582C104.267 109.315 104.658 110.104 104.663 111.573C104.665 112.467 104.514 112.93 104.032 113.503C103.525 114.107 83.2952 126.094 79.6116 127.973C78.5325 128.524 77.0745 128.49 76.0931 127.891ZM6.46411 110.521C0.074449 109.185 -2.20511 101.166 2.50304 96.5854C6.33748 92.855 12.8401 93.9839 15.4126 98.8266C16.0009 99.934 16.0808 100.37 16.0808 102.474C16.0808 104.582 16.0011 105.015 15.4048 106.149C13.7108 109.369 9.89037 111.237 6.46411 110.521ZM115.323 110.516C112.834 110.022 110.679 108.404 109.482 106.132C108.896 105.018 108.815 104.574 108.815 102.474C108.815 100.457 108.905 99.9138 109.397 98.9902C110.33 97.2372 111.811 95.8153 113.486 95.0625C114.835 94.4568 115.262 94.3855 117.067 94.465C119.477 94.5713 121.045 95.2233 122.578 96.7576C124.11 98.2914 124.863 100.187 124.863 102.511C124.863 104.175 124.752 104.664 124.05 106.091C122.444 109.356 118.797 111.205 115.323 110.516ZM28.876 99.5647C27.7611 99.0118 26.9198 97.4059 27.0879 96.1512C27.257 94.8895 27.8087 94.0499 28.839 93.4863C29.6091 93.0651 31.4449 93.0461 62.5736 93.1357C98.1091 93.238 96.3708 93.1674 97.2731 94.5458C98.2472 96.034 97.9463 97.8536 96.5026 99.2039L95.8303 99.8328L62.7418 99.8914C33.4471 99.9434 29.5642 99.9059 28.876 99.5647ZM6.20459 88.1292C4.62613 87.1659 4.6491 87.4181 4.6491 71.0302C4.6491 54.6422 4.62613 54.8944 6.20459 53.9311C6.72742 53.612 7.4766 53.4231 8.22137 53.4225C9.1874 53.4217 9.56925 53.5648 10.2885 54.1969C10.7833 54.6319 11.2831 55.3773 11.4267 55.8949C11.7739 57.1463 11.7739 84.914 11.4267 86.1654C11.2831 86.683 10.7833 87.4284 10.2885 87.8634C9.56925 88.4955 9.1874 88.6386 8.22137 88.6378C7.4766 88.6372 6.72742 88.4483 6.20459 88.1292ZM115.346 88.3988C114.517 88.0553 113.685 86.987 113.447 85.9589C113.152 84.6869 113.155 57.359 113.45 56.085C113.808 54.5427 114.911 53.612 116.523 53.4926C118.147 53.3722 119.202 53.9344 119.827 55.2536C120.204 56.0496 120.247 57.641 120.247 71.0302C120.247 87.5275 120.288 87.0999 118.62 88.1317C117.776 88.6535 116.26 88.7772 115.346 88.3988ZM22.5219 87.454C21.4227 86.9119 20.7344 85.7593 20.7332 84.4588C20.7332 83.316 19.5419 85.4468 41.4423 47.3843C47.6117 36.6619 52.9804 27.5933 53.3727 27.2318C54.4058 26.2797 55.6969 26.1038 57.0041 26.7373C58.3059 27.3681 58.9297 28.3732 58.9297 29.84C58.9297 31.1043 60.7683 27.8012 39.5032 64.7414C29.5733 81.9908 26.6538 86.8745 26.0068 87.3181C25.024 87.9919 23.7162 88.0429 22.5219 87.454ZM99.2633 87.6463C98.9868 87.533 98.5727 87.2289 98.3431 86.9705C97.7969 86.3559 67.088 33.0673 66.2955 31.3588C65.5774 29.8108 65.683 28.6418 66.6442 27.4983C67.8761 26.0329 70.3941 25.9432 71.6814 27.3189C72.1384 27.8072 102.349 80.041 103.686 82.6544C103.953 83.1768 104.164 84.1034 104.164 84.7593C104.164 85.7848 104.042 86.0526 103.188 86.9075C102.314 87.7822 102.085 87.8824 100.989 87.8681C100.316 87.8594 99.5397 87.7595 99.2633 87.6463ZM4.97132 47.1051C3.28015 46.4544 1.52789 44.7411 0.682716 42.9118C0.152198 41.7637 0.0166901 41.0892 0.0122421 39.5742C0.00244146 36.2281 1.7634 33.5131 4.86578 32.0914C6.55587 31.3169 8.93158 31.235 10.8613 31.8849C12.5144 32.4416 14.5094 34.2098 15.4048 35.9117C16.0011 37.045 16.0808 37.4783 16.0808 39.5862C16.0808 41.6903 16.0009 42.1263 15.4126 43.2337C14.5377 44.8808 13.1441 46.1964 11.4342 46.9897C9.65442 47.8154 6.94306 47.8638 4.97132 47.1051ZM113.336 46.9328C111.705 46.1455 110.301 44.7665 109.39 43.0564C108.906 42.148 108.814 41.5955 108.815 39.5862C108.815 37.4789 108.895 37.0447 109.491 35.9117C112.633 29.9399 121.101 29.9734 124.05 35.9693C125.594 39.1083 124.999 42.8789 122.578 45.3027C121.01 46.8722 119.483 47.4944 116.98 47.584C115.053 47.6529 114.696 47.5891 113.336 46.9328ZM21.8125 33.5592C20.0356 32.4746 19.6802 29.6886 21.1374 28.2656C21.5365 27.8758 27.1781 24.4757 33.6742 20.7099C43.9428 14.757 45.6493 13.8477 46.7417 13.7472C48.8684 13.5516 50.3741 14.9376 50.3819 17.0981C50.389 19.1066 50.2375 19.2174 36.9416 26.9194C23.5694 34.6656 23.6019 34.6514 21.8125 33.5592ZM99.1102 33.3212C98.3651 32.9193 92.7798 29.7084 86.6983 26.1859C78.2987 21.3207 75.5052 19.583 75.0757 18.9557C73.9712 17.3427 74.5711 14.9329 76.2999 14.038C78.0511 13.1315 78.4745 13.3204 91.2217 20.6967C98.3284 24.8091 103.358 27.8766 103.849 28.3983C105.807 30.4763 104.208 34.0521 101.322 34.0521C100.85 34.0521 99.8553 33.7232 99.1102 33.3212ZM59.0498 15.4749C55.9276 13.9963 54.2785 11.2105 54.4466 7.69872C54.6645 3.14988 57.9382 0 62.4479 0C66.9577 0 70.2313 3.14988 70.4492 7.69872C70.5679 10.177 70.0216 11.7914 68.4847 13.5042C66.8583 15.3167 64.8931 16.1916 62.4479 16.1916C60.8976 16.1916 60.2947 16.0644 59.0498 15.4749Z" fill="url(#paint0_linear_2_99)"/>
<path d="M61.9531 82.1406C59.526 82.9219 56.849 83.3125 53.9219 83.3125C50.4635 83.3125 47.7708 82.2865 45.8438 80.2344C43.9167 78.1615 42.9531 75.276 42.9531 71.5781C42.9531 69.1927 43.4271 67.1094 44.375 65.3281C45.3229 63.5469 46.6927 62.1875 48.4844 61.25C50.2865 60.3021 52.3906 59.8281 54.7969 59.8281C57.2135 59.8281 59.4844 60.276 61.6094 61.1719L60.5781 63.5156C58.5156 62.6406 56.5312 62.2031 54.625 62.2031C51.8438 62.2031 49.6719 63.0312 48.1094 64.6875C46.5469 66.3438 45.7656 68.6771 45.7656 71.6875C45.7656 74.6979 46.5156 77 48.0156 78.5938C49.526 80.1875 51.7396 80.9844 54.6562 80.9844C56.2083 80.9844 57.7552 80.8021 59.2969 80.4375V73.4062H54.1875V71.0312H61.9531V82.1406ZM67.4531 60.1562H73.375C79.0833 60.1562 81.9375 62.375 81.9375 66.8125C81.9375 69.125 81.1458 70.9062 79.5625 72.1562C77.9896 73.3958 75.7344 74.0156 72.7969 74.0156H70.1094V83H67.4531V60.1562ZM70.1094 62.4531V71.7344H72.5C74.8646 71.7344 76.5677 71.3542 77.6094 70.5938C78.6615 69.8229 79.1875 68.6458 79.1875 67.0625C79.1875 65.4688 78.6875 64.3021 77.6875 63.5625C76.6979 62.8229 75.1615 62.4531 73.0781 62.4531H70.1094Z" fill="#D53893"/>
<defs>
<linearGradient id="paint0_linear_2_99" x1="62.4508" y1="0" x2="62.4508" y2="142.113" gradientUnits="userSpaceOnUse">
<stop stop-color="#D33594"/>
<stop offset="1" stop-color="#EE727C"/>
</linearGradient>
</defs>
</svg>
