<svg width="36" height="40" viewBox="0 0 36 40" fill="none" xmlns="http://www.w3.org/2000/svg">
<g clip-path="url(#clip0_4_57)">
<path d="M17.0788 39.8955C16.0505 39.6816 15.3524 38.8441 15.3006 37.7619C15.2626 36.9693 15.4111 36.5783 15.9537 36.0422C16.46 35.5419 16.867 35.3706 17.5489 35.3706C18.2335 35.3706 18.6385 35.5417 19.1385 36.0422C19.6831 36.5874 19.8346 36.9818 19.7974 37.7581C19.7664 38.4049 19.575 38.857 19.1537 39.2787C18.648 39.785 17.7832 40.0421 17.0788 39.8955ZM11.646 35.35C7.43234 32.9245 6.04899 32.1052 5.90127 31.9478C5.68018 31.7122 5.62323 31.1713 5.78626 30.8557C5.94103 30.5561 6.28688 30.3529 6.64246 30.3526C6.88985 30.3523 7.40411 30.6272 10.3851 32.3532C13.0813 33.9142 13.8759 34.406 14 34.5904C14.3053 35.0438 14.143 35.7247 13.6714 35.9688C13.226 36.1993 13.003 36.1312 11.646 35.35ZM21.3834 35.9397C20.9344 35.6656 20.7998 35.0314 21.0975 34.5925C21.2203 34.4114 22.0421 33.9035 24.7168 32.3555C28.5165 30.1564 28.4857 30.1696 28.9955 30.5135C29.3009 30.7195 29.4107 30.9411 29.412 31.3542C29.4128 31.6052 29.3702 31.7355 29.2349 31.8964C29.0922 32.0661 23.4073 35.4347 22.3722 35.9629C22.0689 36.1176 21.6592 36.108 21.3834 35.9397ZM1.8164 31.0583C0.0207843 30.6831 -0.619813 28.4295 0.703263 27.1423C1.78081 26.094 3.60816 26.4112 4.3311 27.7721C4.49641 28.0833 4.51886 28.2058 4.51886 28.7971C4.51886 29.3895 4.49646 29.5112 4.3289 29.8297C3.85285 30.7346 2.77924 31.2596 1.8164 31.0583ZM32.4078 31.057C31.7083 30.9183 31.1026 30.4636 30.7664 29.825C30.6017 29.5119 30.5789 29.3872 30.5788 28.7971C30.5788 28.2302 30.6041 28.0776 30.7423 27.8181C31.0047 27.3254 31.4207 26.9259 31.8916 26.7143C32.2705 26.5441 32.3905 26.5241 32.8977 26.5464C33.5752 26.5763 34.0157 26.7595 34.4464 27.1907C34.877 27.6217 35.0886 28.1544 35.0886 28.8075C35.0886 29.2752 35.0574 29.4126 34.8602 29.8135C34.409 30.731 33.3841 31.2507 32.4078 31.057ZM8.11455 27.9795C7.80124 27.8242 7.56483 27.3729 7.61207 27.0203C7.65958 26.6657 7.81463 26.4298 8.10416 26.2714C8.32056 26.153 8.83646 26.1477 17.5842 26.1728C27.5703 26.2016 27.0818 26.1818 27.3354 26.5691C27.6092 26.9873 27.5246 27.4987 27.1189 27.8781L26.93 28.0549L17.6315 28.0713C9.39912 28.0859 8.30796 28.0754 8.11455 27.9795ZM1.74347 24.7659C1.29989 24.4952 1.30635 24.5661 1.30635 19.9608C1.30635 15.3555 1.29989 15.4263 1.74347 15.1556C1.89039 15.066 2.10092 15.0129 2.31022 15.0127C2.58169 15.0125 2.689 15.0527 2.89111 15.2303C3.03018 15.3526 3.17061 15.562 3.21096 15.7075C3.30854 16.0592 3.30854 23.8624 3.21096 24.2141C3.17061 24.3595 3.03018 24.569 2.89111 24.6912C2.689 24.8689 2.58169 24.9091 2.31022 24.9089C2.10092 24.9087 1.89039 24.8556 1.74347 24.7659ZM32.4143 24.8417C32.1812 24.7452 31.9475 24.4449 31.8805 24.156C31.7976 23.7986 31.7986 16.1189 31.8815 15.7609C31.982 15.3275 32.2919 15.066 32.7449 15.0324C33.2013 14.9986 33.4978 15.1566 33.6735 15.5273C33.7795 15.751 33.7914 16.1982 33.7914 19.9608C33.7914 24.5968 33.8029 24.4767 33.3342 24.7666C33.0972 24.9133 32.6712 24.948 32.4143 24.8417ZM6.32893 24.5762C6.02004 24.4239 5.8266 24.0999 5.82627 23.7345C5.82627 23.4133 5.4915 24.0121 11.6459 13.3159C13.3796 10.3027 14.8883 7.75423 14.9986 7.65265C15.2889 7.38507 15.6517 7.33566 16.0191 7.51367C16.3849 7.69095 16.5602 7.97341 16.5602 8.38558C16.5602 8.74089 17.0769 7.81266 11.101 18.1935C8.3105 23.0409 7.49008 24.4133 7.30826 24.538C7.03207 24.7274 6.66455 24.7417 6.32893 24.5762ZM27.8947 24.6302C27.817 24.5984 27.7006 24.5129 27.6361 24.4403C27.4826 24.2676 18.8528 9.29253 18.6301 8.81241C18.4283 8.3774 18.458 8.04888 18.7281 7.72754C19.0743 7.31572 19.7819 7.29051 20.1437 7.67711C20.2721 7.81433 28.7619 22.493 29.1376 23.2274C29.2127 23.3742 29.2718 23.6346 29.2718 23.8189C29.2718 24.1071 29.2376 24.1824 28.9976 24.4226C28.752 24.6684 28.6875 24.6966 28.3797 24.6926C28.1906 24.6901 27.9724 24.6621 27.8947 24.6302ZM1.39689 13.2374C0.921646 13.0545 0.429229 12.5731 0.191719 12.059C0.0426333 11.7364 0.00455302 11.5468 0.00330305 11.1211C0.00054888 10.1808 0.49541 9.41781 1.36724 9.01827C1.84218 8.80062 2.5098 8.77762 3.05208 8.96025C3.51663 9.1167 4.07728 9.61358 4.3289 10.0918C4.49646 10.4103 4.51886 10.5321 4.51886 11.1245C4.51886 11.7157 4.49641 11.8383 4.3311 12.1495C4.08522 12.6123 3.6936 12.9821 3.21308 13.205C2.71293 13.437 1.95099 13.4506 1.39689 13.2374ZM31.8494 13.189C31.3909 12.9677 30.9964 12.5802 30.7404 12.0996C30.6044 11.8444 30.5786 11.6891 30.5788 11.1245C30.5788 10.5323 30.6014 10.4102 30.7689 10.0918C31.6518 8.41367 34.0315 8.42309 34.8602 10.108C35.294 10.9902 35.1269 12.0498 34.4464 12.7309C34.0058 13.172 33.5768 13.3468 32.8734 13.372C32.3319 13.3914 32.2316 13.3734 31.8494 13.189ZM6.12957 9.43075C5.63022 9.12598 5.53037 8.34305 5.93985 7.94316C6.05202 7.83363 7.6374 6.87814 9.46293 5.81986C12.3486 4.14699 12.8282 3.89147 13.1351 3.86323C13.7328 3.80824 14.1559 4.19773 14.1581 4.80488C14.1601 5.36932 14.1175 5.40045 10.3811 7.56485C6.62329 9.74168 6.63243 9.73767 6.12957 9.43075ZM27.8517 9.36389C27.6423 9.25092 26.0727 8.3486 24.3637 7.35873C22.0032 5.99152 21.2182 5.50318 21.0975 5.3269C20.7871 4.87363 20.9557 4.19641 21.4415 3.94493C21.9337 3.69019 22.0527 3.74329 25.6348 5.81615C27.632 6.9718 29.0454 7.83384 29.1835 7.98044C29.7336 8.56441 29.2843 9.56927 28.4731 9.56927C28.3407 9.56927 28.061 9.47685 27.8517 9.36389ZM16.5939 4.34873C15.7165 3.93322 15.2531 3.15035 15.3004 2.16348C15.3616 0.885175 16.2816 0 17.5489 0C18.8162 0 19.7362 0.885175 19.7974 2.16348C19.8308 2.85991 19.6772 3.3136 19.2453 3.79492C18.7883 4.30428 18.236 4.55013 17.5489 4.55013C17.1132 4.55013 16.9438 4.51439 16.5939 4.34873Z" fill="white"/>
<path d="M16.8737 22.637C16.2512 22.8366 15.5645 22.9364 14.8136 22.9364C13.9265 22.9364 13.2358 22.6743 12.7415 22.15C12.2472 21.6204 12 20.8832 12 19.9384C12 19.3289 12.1216 18.7967 12.3647 18.3416C12.6079 17.8865 12.9593 17.5392 13.4188 17.2997C13.8811 17.0575 14.4208 16.9364 15.0381 16.9364C15.658 16.9364 16.2405 17.0508 16.7856 17.2797L16.521 17.8785C15.992 17.655 15.483 17.5432 14.994 17.5432C14.2806 17.5432 13.7234 17.7548 13.3226 18.1779C12.9218 18.6011 12.7214 19.1972 12.7214 19.9663C12.7214 20.7355 12.9138 21.3236 13.2986 21.7308C13.686 22.138 14.2538 22.3416 15.002 22.3416C15.4001 22.3416 15.7969 22.295 16.1924 22.2019V20.4055H14.8818V19.7987H16.8737V22.637Z" fill="white"/>
<path d="M18.2846 17.0202H19.8036C21.2679 17.0202 22 17.5871 22 18.7208C22 19.3117 21.7969 19.7667 21.3908 20.0861C20.9873 20.4028 20.4088 20.5612 19.6553 20.5612H18.9659V22.8566H18.2846V17.0202ZM18.9659 17.6071V19.9783H19.5792C20.1857 19.9783 20.6226 19.8812 20.8898 19.6869C21.1597 19.49 21.2946 19.1892 21.2946 18.7847C21.2946 18.3775 21.1663 18.0794 20.9098 17.8905C20.656 17.7015 20.2619 17.6071 19.7275 17.6071H18.9659Z" fill="white"/>
</g>
<defs>
<clipPath id="clip0_4_57">
<rect width="35.0994" height="39.9364" fill="white"/>
</clipPath>
</defs>
</svg>
