<svg width="20" height="20" viewBox="0 0 20 20" fill="none" xmlns="http://www.w3.org/2000/svg">
<path fill-rule="evenodd" clip-rule="evenodd" d="M2.06493 0H17.9351C19.0725 0 20 0.927508 20 2.06493V17.9351C20 19.0725 19.0725 20 17.9351 20H2.06493C0.927508 20 0 19.0725 0 17.9351V2.06493C0 0.927508 0.927508 0 2.06493 0ZM5.29656 11.1155V13.0071C5.29656 13.4668 4.92392 13.8394 4.46424 13.8394C4.00457 13.8394 3.63193 13.4668 3.63193 13.0071V8.71369C3.63193 7.22817 4.83618 6.02392 6.3217 6.02392C8.26458 6.02392 9.23603 6.84891 9.23603 8.49402C9.23603 9.29461 8.94313 9.93898 8.35734 10.4174C7.77154 10.9007 7.03442 11.1301 6.15572 11.1106H5.30144C5.29874 11.1106 5.29656 11.1128 5.29656 11.1155ZM6.03368 7.31755C5.62658 7.31755 5.29656 7.64757 5.29656 8.05467V9.11887C5.29656 9.51788 5.62002 9.84135 6.01904 9.84135C7.00024 9.84135 7.48841 9.41665 7.48841 8.56236C7.48841 7.73249 7.00513 7.31755 6.03368 7.31755ZM16.3748 6.02575C16.3739 6.02486 16.3724 6.02513 16.3719 6.02627L13.9321 11.3937C13.4342 12.4921 12.9656 13.195 12.536 13.5074C12.1015 13.8199 11.6329 13.9761 11.1252 13.9761C10.8895 13.9761 10.678 13.9567 10.4907 13.9171C10.2545 13.8671 10.1147 13.6409 10.1147 13.3994V13.2429C10.1147 12.821 10.6105 12.5555 11.0325 12.5555C11.1521 12.5555 11.2682 12.53 11.3805 12.479C12.1768 12.1179 12.0301 10.9795 11.6545 10.1899L10.2482 7.23312C9.98229 6.67409 10.3899 6.0288 11.009 6.0288C11.3485 6.0288 11.6548 6.2326 11.786 6.54575L12.9314 9.27996C12.9993 9.4352 13.0576 9.63865 13.111 9.8951C13.1116 9.8979 13.1141 9.89993 13.1169 9.89993C13.1198 9.89993 13.1222 9.89796 13.1228 9.89519C13.162 9.71573 13.2251 9.51236 13.3122 9.29461L14.4774 6.38594C14.5638 6.17022 14.7728 6.0288 15.0052 6.0288H16.3735C16.3751 6.0288 16.3759 6.02687 16.3748 6.02575Z" fill="white"/>
</svg>
