<svg width="18" height="18" viewBox="0 0 18 18" fill="none" xmlns="http://www.w3.org/2000/svg">
<path d="M15.1916 9.81246C15.225 9.54579 15.25 9.27496 15.25 8.99996C15.25 8.72496 15.225 8.45413 15.1916 8.18746L16.9541 6.80829C17.1125 6.68329 17.1583 6.45829 17.0541 6.27496L15.3875 3.38746C15.2833 3.20829 15.0666 3.13329 14.8791 3.20829L12.8041 4.04579C12.375 3.71663 11.9041 3.43746 11.3958 3.22496L11.0833 1.01663C11.0458 0.820793 10.875 0.666626 10.6666 0.666626H7.33331C7.12498 0.666626 6.95414 0.820793 6.92081 1.01663L6.60831 3.22496C6.09998 3.43746 5.62914 3.71246 5.19998 4.04579L3.12498 3.20829C2.93748 3.13746 2.72081 3.20829 2.61665 3.38746L0.949978 6.27496C0.845812 6.45413 0.891645 6.67913 1.04998 6.80829L2.80831 8.18746C2.77498 8.45413 2.74998 8.72496 2.74998 8.99996C2.74998 9.27496 2.77498 9.54579 2.80831 9.81246L1.04998 11.1916C0.891645 11.3166 0.845812 11.5416 0.949978 11.725L2.61665 14.6125C2.72081 14.7916 2.93748 14.8666 3.12498 14.7916L5.19998 13.9541C5.62914 14.2833 6.09998 14.5625 6.60831 14.775L6.92081 16.9833C6.95414 17.1791 7.12498 17.3333 7.33331 17.3333H10.6666C10.875 17.3333 11.0458 17.1791 11.0791 16.9833L11.3916 14.775C11.9 14.5625 12.3708 14.2875 12.8 13.9541L14.875 14.7916C15.0625 14.8625 15.2791 14.7916 15.3833 14.6125L17.05 11.725C17.1541 11.5458 17.1083 11.3208 16.95 11.1916L15.1916 9.81246ZM8.99998 11.9166C7.38748 11.9166 6.08331 10.6125 6.08331 8.99996C6.08331 7.38746 7.38748 6.08329 8.99998 6.08329C10.6125 6.08329 11.9166 7.38746 11.9166 8.99996C11.9166 10.6125 10.6125 11.9166 8.99998 11.9166Z" fill="#161D25"/>
</svg>
